{
	"asset":{
		"generator":"Khronos glTF Blender I/O v4.4.55",
		"version":"2.0"
	},
	"scene":0,
	"scenes":[
		{
			"name":"Scene",
			"nodes":[
				0,
				1
			]
		}
	],
	"nodes":[
		{
			"mesh":0,
			"name":"5249855 DSNU-32-150-PPV---(A----0-ZR)",
			"scale":[
				0.009999999776482582,
				0.009999999776482582,
				0.009999999776482582
			],
			"translation":[
				0.05999999865889549,
				0,
				0
			]
		},
		{
			"mesh":1,
			"name":"5249855 DSNU-32-150-PPV---(A---00--0-KS)",
			"rotation":[
				0,
				0,
				0.7071068286895752,
				0.7071068286895752
			],
			"scale":[
				0.009999999776482582,
				0.009999999776482582,
				0.009999999776482582
			],
			"translation":[
				0.5199999809265137,
				0,
				-0.029999999329447746
			]
		}
	],
	"animations":[
		{
			"channels":[
				{
					"sampler":0,
					"target":{
						"node":1,
						"path":"translation"
					}
				}
			],
			"name":"5249855 DSNU-32-150-PPV---(A---00--0-KS)Action",
			"samplers":[
				{
					"input":6,
					"interpolation":"LINEAR",
					"output":7
				}
			]
		}
	],
	"materials":[
		{
			"doubleSided":true,
			"name":"Material.001",
			"pbrMetallicRoughness":{
				"baseColorFactor":[
					0.3103991448879242,
					0.3103991448879242,
					0.3103991448879242,
					1
				],
				"roughnessFactor":0.5
			}
		}
	],
	"meshes":[
		{
			"name":"5249855 DSNU-32-150-PPV---(A----0-ZR)",
			"primitives":[
				{
					"attributes":{
						"POSITION":0,
						"NORMAL":1
					},
					"indices":2,
					"material":0
				}
			]
		},
		{
			"name":"5249855 DSNU-32-150-PPV---(A---00--0-KS)",
			"primitives":[
				{
					"attributes":{
						"POSITION":3,
						"NORMAL":4
					},
					"indices":5,
					"material":0
				}
			]
		}
	],
	"accessors":[
		{
			"bufferView":0,
			"componentType":5126,
			"count":16174,
			"max":[
				271.6202697753906,
				38,
				0
			],
			"min":[
				0.12028831243515015,
				0,
				-38
			],
			"type":"VEC3"
		},
		{
			"bufferView":1,
			"componentType":5126,
			"count":16174,
			"type":"VEC3"
		},
		{
			"bufferView":2,
			"componentType":5123,
			"count":20778,
			"type":"SCALAR"
		},
		{
			"bufferView":3,
			"componentType":5126,
			"count":4466,
			"max":[
				32.25479507446289,
				245.00498962402344,
				-0.32685136795043945
			],
			"min":[
				0.31243449449539185,
				0.004991888999938965,
				-32.29801940917969
			],
			"type":"VEC3"
		},
		{
			"bufferView":4,
			"componentType":5126,
			"count":4466,
			"type":"VEC3"
		},
		{
			"bufferView":5,
			"componentType":5123,
			"count":5364,
			"type":"SCALAR"
		},
		{
			"bufferView":6,
			"componentType":5126,
			"count":361,
			"max":[
				15
			],
			"min":[
				0
			],
			"type":"SCALAR"
		},
		{
			"bufferView":7,
			"componentType":5126,
			"count":361,
			"type":"VEC3"
		}
	],
	"bufferViews":[
		{
			"buffer":0,
			"byteLength":194088,
			"byteOffset":0,
			"target":34962
		},
		{
			"buffer":0,
			"byteLength":194088,
			"byteOffset":194088,
			"target":34962
		},
		{
			"buffer":0,
			"byteLength":41556,
			"byteOffset":388176,
			"target":34963
		},
		{
			"buffer":0,
			"byteLength":53592,
			"byteOffset":429732,
			"target":34962
		},
		{
			"buffer":0,
			"byteLength":53592,
			"byteOffset":483324,
			"target":34962
		},
		{
			"buffer":0,
			"byteLength":10728,
			"byteOffset":536916,
			"target":34963
		},
		{
			"buffer":0,
			"byteLength":1444,
			"byteOffset":547644
		},
		{
			"buffer":0,
			"byteLength":4332,
			"byteOffset":549088
		}
	],
	"buffers":[
		{
			"byteLength":553420,
			"uri":"Zylinder3.bin"
		}
	]
}
